STARTFONT 2.1
FONT fqxb-25
SIZE 24 75 75
FONTBOUNDINGBOX 22 25 0 -5

STARTPROPERTIES 10
COPYRIGHT "Public domain font.  Share and enjoy."
POINT_SIZE 240
WEIGHT 10
RESOLUTION_X 75
RESOLUTION_Y 75
X_HEIGHT 20
QUAD_WIDTH 22
DEFAULT_CHAR 0
FONT_DESCENT 5
FONT_ASCENT 20
ENDPROPERTIES

CHARS 127

STARTCHAR C001
ENCODING 1
SWIDTH 916 0
DWIDTH 22 0
BBX 22 25 0 -5
BITMAP
0F8000
0F8000
0F8000
0F8000
0F8000
0F8000
0F8000
0F8000
8F8800
CF9800
EFB800
FFF800
FFF800
FFF800
7FF000
3FE000
1FC000
0F8000
070000
020000
000000
000000
000000
000000
000000
ENDCHAR

STARTCHAR C002
ENCODING 2
SWIDTH 916 0
DWIDTH 22 0
BBX 22 25 0 -5
BITMAP
000000
000000
000000
000000
000000
000000
000000
000000
0FF3E0
3FFFC0
7FFFC0
FC7F00
F83E00
F83E00
F83E00
F83E00
F83E00
FC7F00
7FFF80
3FF7C0
0FC3E0
000000
000000
000000
000000
ENDCHAR

STARTCHAR C003
ENCODING 3
SWIDTH 916 0
DWIDTH 22 0
BBX 22 25 0 -5
BITMAP
000000
000000
000000
0FC000
3FF000
7FF800
F87C00
F87C00
F87C00
FFF800
FFF000
FFFC00
F87E00
F83E00
F83E00
F83E00
F87E00
FFFC00
FFF800
FFE000
F80000
F80000
F80000
000000
000000
ENDCHAR

STARTCHAR C004
ENCODING 4
SWIDTH 916 0
DWIDTH 22 0
BBX 22 25 0 -5
BITMAP
000000
000000
000000
000000
01F000
01F000
03F800
03F800
07FC00
07FC00
0FFE00
1FBF00
1FBF00
3F1F80
7E0FC0
7E0FC0
FC07E0
000000
000000
000000
000000
000000
000000
000000
000000
ENDCHAR

STARTCHAR C005
ENCODING 5
SWIDTH 916 0
DWIDTH 22 0
BBX 22 25 0 -5
BITMAP
000000
000000
000000
000000
000000
000000
FFFFE0
FFFFE0
FFFFE0
FFFFE0
0007E0
0007E0
0007E0
0007E0
000000
000000
000000
000000
000000
000000
000000
000000
000000
000000
000000
ENDCHAR

STARTCHAR C006
ENCODING 6
SWIDTH 916 0
DWIDTH 22 0
BBX 22 25 0 -5
BITMAP
000000
000000
000000
000000
000000
000000
000000
0FFC00
3FFC00
7FFC00
FC0000
F80000
FFC000
FFC000
FFC000
F80000
FC0000
7FFC00
3FFC00
0FFC00
000000
000000
000000
000000
000000
ENDCHAR

STARTCHAR C007
ENCODING 7
SWIDTH 916 0
DWIDTH 22 0
BBX 22 25 0 -5
BITMAP
000000
000000
000000
000000
000000
000000
000000
1E0060
7FF1E0
FFFFE0
EFFFE0
8F1F00
0F1E00
0F1E00
1E1E00
1E1E00
1E1E00
3C1E00
3C1E00
3C1E00
000000
000000
000000
000000
000000
ENDCHAR

STARTCHAR C010
ENCODING 8
SWIDTH 916 0
DWIDTH 22 0
BBX 22 25 0 -5
BITMAP
000000
7C0000
7C0000
3E0000
1F0000
1F8000
0F8000
07C000
07E000
03E000
03F000
07F000
0FF800
1FF800
3E7C00
7C7C00
7C7C00
F83E00
F81F00
F81F00
000000
000000
000000
000000
000000
ENDCHAR

STARTCHAR C011
ENCODING 9
SWIDTH 916 0
DWIDTH 22 0
BBX 22 25 0 -5
BITMAP
000000
000000
000000
000000
000000
000000
000000
F801E0
7C03E0
3E07C0
1F0780
0F8F80
07DF00
03FE00
01FC00
00F800
01F000
01E000
03E000
03C000
07C000
078000
0F8000
1F0000
3E0000
ENDCHAR

STARTCHAR C012
ENCODING 10
SWIDTH 916 0
DWIDTH 22 0
BBX 22 25 0 -5
BITMAP
000000
000000
000000
000000
07F000
1FF000
3FF000
3E0000
3E0000
3E0000
1FF800
7FFC00
FFFE00
F83E00
F01E00
F01E00
F83E00
FFFE00
7FFC00
1FF000
000000
000000
000000
000000
000000
ENDCHAR

STARTCHAR C013
ENCODING 11
SWIDTH 916 0
DWIDTH 22 0
BBX 22 25 0 -5
BITMAP
020000
070000
0F8000
1FC000
3FE000
7FF000
FFF800
FFF800
FFF800
EFB800
CF9800
8F8800
0F8000
0F8000
0F8000
0F8000
0F8000
0F8000
0F8000
0F8000
000000
000000
000000
000000
000000
ENDCHAR

STARTCHAR C014
ENCODING 12
SWIDTH 916 0
DWIDTH 22 0
BBX 22 25 0 -5
BITMAP
000000
000000
03E000
03E000
03E000
03E000
03E000
FFFF80
FFFF80
FFFF80
FFFF80
03E000
03E000
03E000
03E000
FFFF80
FFFF80
FFFF80
FFFF80
000000
000000
000000
000000
000000
000000
ENDCHAR

STARTCHAR C015
ENCODING 13
SWIDTH 916 0
DWIDTH 22 0
BBX 22 25 0 -5
BITMAP
000000
000000
000000
1FFE00
7FFF80
FFFFC0
F1E3C0
F1E3C0
F1E3C0
FFFFC0
FFFFC0
FFFFC0
F1E3C0
F1E3C0
F1E3C0
FFFFC0
7FFF80
1FFE00
000000
000000
000000
000000
000000
000000
000000
ENDCHAR

STARTCHAR C016
ENCODING 14
SWIDTH 916 0
DWIDTH 22 0
BBX 22 25 0 -5
BITMAP
000000
000000
000000
000000
000000
000000
1F1F00
7FBFC0
FFFFE0
F1F1E0
F1F1E0
F1F1E0
FFFFE0
7FBFC0
1F1F00
000000
000000
000000
000000
000000
000000
000000
000000
000000
000000
ENDCHAR

STARTCHAR C017
ENCODING 15
SWIDTH 916 0
DWIDTH 22 0
BBX 22 25 0 -5
BITMAP
000000
000000
000000
000000
0FE000
3FF800
7FFC00
F87E00
003E00
003E00
07FE00
1FFE00
3FFE00
7C3E00
781E00
781E00
7C3E00
3FFC00
1FF800
07E000
000000
000000
000000
000000
000000
ENDCHAR

STARTCHAR C020
ENCODING 16
SWIDTH 916 0
DWIDTH 22 0
BBX 22 25 0 -5
BITMAP
000000
000000
000000
000000
000000
0FFF80
3FFF80
7FFF80
FFFF80
FC0000
F80000
F80000
F80000
F80000
FC0000
FFFF80
7FFF80
3FFF80
0FFF80
000000
000000
000000
000000
000000
000000
ENDCHAR

STARTCHAR C021
ENCODING 17
SWIDTH 916 0
DWIDTH 22 0
BBX 22 25 0 -5
BITMAP
000000
000000
000000
000000
000000
FFF800
FFFE00
FFFF00
FFFF80
001F80
000F80
000F80
000F80
000F80
001F80
FFFF80
FFFF00
FFFE00
FFF800
000000
000000
000000
000000
000000
000000
ENDCHAR

STARTCHAR C022
ENCODING 18
SWIDTH 916 0
DWIDTH 22 0
BBX 22 25 0 -5
BITMAP
000000
000000
000000
F83E00
F83E00
F83E00
F83E00
F83E00
F83E00
F83E00
F83E00
F83E00
F83E00
F83E00
FC7E00
FFFE00
7FFC00
3FF800
0FE000
000000
000000
000000
000000
000000
000000
ENDCHAR

STARTCHAR C023
ENCODING 19
SWIDTH 916 0
DWIDTH 22 0
BBX 22 25 0 -5
BITMAP
000000
0FE000
3FF800
7FFC00
FFFE00
FC7E00
F83E00
F83E00
F83E00
F83E00
F83E00
F83E00
F83E00
F83E00
F83E00
F83E00
F83E00
000000
000000
000000
000000
000000
000000
000000
000000
ENDCHAR

STARTCHAR C024
ENCODING 20
SWIDTH 916 0
DWIDTH 22 0
BBX 22 25 0 -5
BITMAP
FC07E0
FC07E0
7E0FC0
7FFFC0
7FFFC0
3FFF80
3FFF80
3F1F80
1F1F00
1F1F00
1FBF00
0FBE00
0FBE00
0FFE00
07FC00
07FC00
07FC00
03F800
03F800
01F000
000000
000000
000000
000000
000000
ENDCHAR

STARTCHAR C025
ENCODING 21
SWIDTH 916 0
DWIDTH 22 0
BBX 22 25 0 -5
BITMAP
FFFC00
FFFC00
FFFC00
FFFC00
00FC00
00FC00
00FC00
00FC00
FFFC00
FFFC00
FFFC00
FFFC00
00FC00
00FC00
00FC00
00FC00
FFFC00
FFFC00
FFFC00
FFFC00
000000
000000
000000
000000
000000
ENDCHAR

STARTCHAR C026
ENCODING 22
SWIDTH 916 0
DWIDTH 22 0
BBX 22 25 0 -5
BITMAP
000000
000000
000000
1FFE00
7FFF80
FFFFC0
FE1FC0
FF3FC0
F7FBC0
F3F3C0
F1E3C0
F3F3C0
F7FBC0
FF3FC0
FE1FC0
FFFFC0
7FFF80
1FFE00
000000
000000
000000
000000
000000
000000
000000
ENDCHAR

STARTCHAR C027
ENCODING 23
SWIDTH 916 0
DWIDTH 22 0
BBX 22 25 0 -5
BITMAP
000000
000000
000000
000000
020400
060600
0E0700
1E0780
3FFFC0
7FFFE0
FFFFF0
7FFFE0
3FFFC0
1E0780
0E0700
060600
020400
000000
000000
000000
000000
000000
000000
000000
000000
ENDCHAR

STARTCHAR C030
ENCODING 24
SWIDTH 916 0
DWIDTH 22 0
BBX 22 25 0 -5
BITMAP
000000
000000
000000
000000
03F000
07E000
0FC000
1F8000
3FFFF0
7FFFF0
FFFFF0
7FFFF0
3FFFF0
1F8000
0FC000
07E000
03F000
000000
000000
000000
000000
000000
000000
000000
000000
ENDCHAR

STARTCHAR C031
ENCODING 25
SWIDTH 916 0
DWIDTH 22 0
BBX 22 25 0 -5
BITMAP
000000
000000
000000
000000
00FC00
007E00
003F00
001F80
FFFFC0
FFFFE0
FFFFF0
FFFFE0
FFFFC0
001F80
003F00
007E00
00FC00
000000
000000
000000
000000
000000
000000
000000
000000
ENDCHAR

STARTCHAR C032
ENCODING 26
SWIDTH 916 0
DWIDTH 22 0
BBX 22 25 0 -5
BITMAP
000000
0001E0
0003E0
0007C0
000F80
FFFFE0
FFFFE0
FFFFE0
FFFFE0
00F800
01F000
03E000
FFFFE0
FFFFE0
FFFFE0
FFFFE0
3E0000
7C0000
F80000
F00000
000000
000000
000000
000000
000000
ENDCHAR

STARTCHAR C033
ENCODING 27
SWIDTH 916 0
DWIDTH 22 0
BBX 22 25 0 -5
BITMAP
004000
00E000
01F000
03F800
07FC00
0FFE00
1FBF00
3F1F80
7E0FC0
FC07E0
7E0FC0
3F1F80
1FBF00
0FFE00
07FC00
03F800
01F000
00E000
004000
000000
000000
000000
000000
000000
000000
ENDCHAR

STARTCHAR C034
ENCODING 28
SWIDTH 916 0
DWIDTH 22 0
BBX 22 25 0 -5
BITMAP
0003C0
000FE0
003FF0
00FFC0
03FF00
0FFC00
3FF000
FFC000
3FF000
0FFC00
03FF00
00FFC0
003FF0
000FE0
0003C0
000000
FFFFF0
FFFFF0
FFFFF0
FFFFF0
000000
000000
000000
000000
000000
ENDCHAR

STARTCHAR C035
ENCODING 29
SWIDTH 916 0
DWIDTH 22 0
BBX 22 25 0 -5
BITMAP
3C0000
7F0000
FFC000
3FF000
0FFC00
03FF00
00FFC0
003FF0
00FFC0
03FF00
0FFC00
3FF000
FFC000
7F0000
3C0000
000000
FFFFF0
FFFFF0
FFFFF0
FFFFF0
000000
000000
000000
000000
000000
ENDCHAR

STARTCHAR C036
ENCODING 30
SWIDTH 916 0
DWIDTH 22 0
BBX 22 25 0 -5
BITMAP
000000
000000
000000
FFFFE0
FFFFE0
FFFFE0
FFFFE0
000000
000000
FFFFE0
FFFFE0
FFFFE0
FFFFE0
000000
000000
FFFFE0
FFFFE0
FFFFE0
FFFFE0
000000
000000
000000
000000
000000
000000
ENDCHAR

STARTCHAR C037
ENCODING 31
SWIDTH 916 0
DWIDTH 22 0
BBX 22 25 0 -5
BITMAP
000000
000000
000000
000000
FC07E0
7E0FC0
7E0FC0
3F1F80
1FBF00
1FBF00
0FFE00
07FC00
07FC00
03F800
03F800
01F000
01F000
000000
000000
000000
000000
000000
000000
000000
000000
ENDCHAR

STARTCHAR C040
ENCODING 32
SWIDTH 916 0
DWIDTH 22 0
BBX 22 25 0 -5
BITMAP
000000
000000
000000
000000
000000
000000
000000
000000
000000
000000
000000
000000
000000
000000
000000
000000
000000
000000
000000
000000
000000
000000
000000
000000
000000
ENDCHAR

STARTCHAR !
ENCODING 33
SWIDTH 916 0
DWIDTH 22 0
BBX 22 25 0 -5
BITMAP
FFC000
FFC000
FFC000
7F8000
7F8000
7F8000
7F8000
3F0000
3F0000
3F0000
3F0000
1E0000
1E0000
000000
000000
3F0000
7F8000
7F8000
7F8000
3F0000
000000
000000
000000
000000
000000
ENDCHAR

STARTCHAR "
ENCODING 34
SWIDTH 916 0
DWIDTH 22 0
BBX 22 25 0 -5
BITMAP
F8F800
F8F800
F8F800
F8F800
F8F800
F8F800
F8F800
000000
000000
000000
000000
000000
000000
000000
000000
000000
000000
000000
000000
000000
000000
000000
000000
000000
000000
ENDCHAR

STARTCHAR #
ENCODING 35
SWIDTH 916 0
DWIDTH 22 0
BBX 22 25 0 -5
BITMAP
1F1F00
1F1F00
1F1F00
1F1F00
FFFFE0
FFFFE0
FFFFE0
FFFFE0
1F1F00
1F1F00
1F1F00
1F1F00
FFFFE0
FFFFE0
FFFFE0
FFFFE0
1F1F00
1F1F00
1F1F00
1F1F00
000000
000000
000000
000000
000000
ENDCHAR

STARTCHAR $
ENCODING 36
SWIDTH 916 0
DWIDTH 22 0
BBX 22 25 0 -5
BITMAP
01F000
01F000
1FFF00
3FFF80
7FFFC0
F9F3E0
F9F000
F9F000
FFFE00
7FFF80
3FFFC0
0FFFE0
01F3E0
01F3E0
F9F3E0
7FFFC0
3FFF80
1FFF00
01F000
01F000
000000
000000
000000
000000
000000
ENDCHAR

STARTCHAR %
ENCODING 37
SWIDTH 916 0
DWIDTH 22 0
BBX 22 25 0 -5
BITMAP
1C01F0
7F01F0
FF81F0
E383E0
E387C0
E38F80
FF9F00
7F3E00
1C7C00
00F800
01F000
03E380
07CFE0
0F9FF0
1F1C70
3E1C70
7C1C70
F81FF0
F80FE0
F80380
000000
000000
000000
000000
000000
ENDCHAR

STARTCHAR &
ENCODING 38
SWIDTH 916 0
DWIDTH 22 0
BBX 22 25 0 -5
BITMAP
1FC000
7FF000
FFF800
F8F800
F8F800
F8F800
FDF000
7FE000
3FC000
1F8000
3FC000
7FE000
FDF7E0
F9FFC0
F8FF80
F87F00
FCFF00
FFFF80
7FFFC0
1FC7E0
000000
000000
000000
000000
000000
ENDCHAR

STARTCHAR '
ENCODING 39
SWIDTH 916 0
DWIDTH 22 0
BBX 22 25 0 -5
BITMAP
1F8000
1F8000
3F0000
3F0000
7E0000
7E0000
FC0000
FC0000
000000
000000
000000
000000
000000
000000
000000
000000
000000
000000
000000
000000
000000
000000
000000
000000
000000
ENDCHAR

STARTCHAR (
ENCODING 40
SWIDTH 916 0
DWIDTH 22 0
BBX 22 25 0 -5
BITMAP
07E000
0FC000
1F8000
3F0000
3F0000
7E0000
7E0000
FC0000
FC0000
FC0000
FC0000
FC0000
FC0000
7E0000
7E0000
3F0000
3F0000
1F8000
0FC000
07E000
000000
000000
000000
000000
000000
ENDCHAR

STARTCHAR )
ENCODING 41
SWIDTH 916 0
DWIDTH 22 0
BBX 22 25 0 -5
BITMAP
FC0000
7E0000
3F0000
1F8000
1F8000
0FC000
0FC000
07E000
07E000
07E000
07E000
07E000
07E000
0FC000
0FC000
1F8000
1F8000
3F0000
7E0000
FC0000
000000
000000
000000
000000
000000
ENDCHAR

STARTCHAR *
ENCODING 42
SWIDTH 916 0
DWIDTH 22 0
BBX 22 25 0 -5
BITMAP
004000
00E000
00E000
01F000
03F800
FFFFE0
FFFFE0
7FFFC0
3FFF80
1FFF00
1FFF00
3FFF80
7FFFC0
FFFFE0
FFFFE0
03F800
01F000
00E000
00E000
004000
000000
000000
000000
000000
000000
ENDCHAR

STARTCHAR +
ENCODING 43
SWIDTH 916 0
DWIDTH 22 0
BBX 22 25 0 -5
BITMAP
000000
000000
03E000
03E000
03E000
03E000
03E000
03E000
FFFF80
FFFF80
FFFF80
FFFF80
03E000
03E000
03E000
03E000
03E000
03E000
000000
000000
000000
000000
000000
000000
000000
ENDCHAR

STARTCHAR ,
ENCODING 44
SWIDTH 916 0
DWIDTH 22 0
BBX 22 25 0 -5
BITMAP
000000
000000
000000
000000
000000
000000
000000
000000
000000
000000
000000
000000
000000
000000
000000
7E0000
FF0000
FF0000
FF0000
7F0000
1E0000
1C0000
380000
600000
000000
ENDCHAR

STARTCHAR -
ENCODING 45
SWIDTH 916 0
DWIDTH 22 0
BBX 22 25 0 -5
BITMAP
000000
000000
000000
000000
000000
000000
000000
000000
FFFFC0
FFFFC0
FFFFC0
FFFFC0
000000
000000
000000
000000
000000
000000
000000
000000
000000
000000
000000
000000
000000
ENDCHAR

STARTCHAR .
ENCODING 46
SWIDTH 916 0
DWIDTH 22 0
BBX 22 25 0 -5
BITMAP
000000
000000
000000
000000
000000
000000
000000
000000
000000
000000
000000
000000
000000
000000
000000
7E0000
FF0000
FF0000
FF0000
7E0000
000000
000000
000000
000000
000000
ENDCHAR

STARTCHAR /
ENCODING 47
SWIDTH 916 0
DWIDTH 22 0
BBX 22 25 0 -5
BITMAP
0007E0
000FC0
000FC0
001F80
003F00
003F00
007E00
00FC00
00FC00
01F800
03F000
07E000
07E000
0FC000
1F8000
1F8000
3F0000
7E0000
7E0000
FC0000
000000
000000
000000
000000
000000
ENDCHAR

STARTCHAR 0
ENCODING 48
SWIDTH 916 0
DWIDTH 22 0
BBX 22 25 0 -5
BITMAP
07FC00
1FFF00
7FFFC0
FFFFE0
FE07E0
FC0FE0
FC1FE0
FC3FE0
FC7FE0
FCF7E0
FDE7E0
FFC7E0
FF87E0
FF07E0
FE07E0
FC0FE0
FFFFE0
7FFFC0
1FFF00
07FC00
000000
000000
000000
000000
000000
ENDCHAR

STARTCHAR 1
ENCODING 49
SWIDTH 916 0
DWIDTH 22 0
BBX 22 25 0 -5
BITMAP
1FC000
3FC000
7FC000
FFC000
0FC000
0FC000
0FC000
0FC000
0FC000
0FC000
0FC000
0FC000
0FC000
0FC000
0FC000
0FC000
7FF800
7FF800
7FF800
7FF800
000000
000000
000000
000000
000000
ENDCHAR

STARTCHAR 2
ENCODING 50
SWIDTH 916 0
DWIDTH 22 0
BBX 22 25 0 -5
BITMAP
07FC00
1FFF00
7FFFC0
FFFFE0
FE0FE0
FC07E0
000FE0
001FC0
003F80
007F00
00FE00
01FC00
03F800
0FE000
1FC000
7F0000
FFFFE0
FFFFE0
FFFFE0
FFFFE0
000000
000000
000000
000000
000000
ENDCHAR

STARTCHAR 3
ENCODING 51
SWIDTH 916 0
DWIDTH 22 0
BBX 22 25 0 -5
BITMAP
07FC00
1FFF00
7FFFC0
FFFFE0
FC0FE0
FC07E0
0007E0
000FE0
01FFC0
01FF00
01FF00
01FFC0
000FE0
0007E0
FC07E0
FC0FE0
FFFFE0
7FFFC0
1FFF00
07FC00
000000
000000
000000
000000
000000
ENDCHAR

STARTCHAR 4
ENCODING 52
SWIDTH 916 0
DWIDTH 22 0
BBX 22 25 0 -5
BITMAP
003F00
007F00
00FF00
01FF00
03FF00
07FF00
0FFF00
1FBF00
3F3F00
7E3F00
FC3F00
FFFFE0
FFFFE0
FFFFE0
FFFFE0
003F00
003F00
003F00
003F00
003F00
000000
000000
000000
000000
000000
ENDCHAR

STARTCHAR 5
ENCODING 53
SWIDTH 916 0
DWIDTH 22 0
BBX 22 25 0 -5
BITMAP
FFFFE0
FFFFE0
FFFFE0
FFFFE0
FC0000
FC0000
FC0000
FFFC00
FFFF00
FFFFC0
FFFFE0
000FE0
0007E0
0007E0
FC07E0
FE0FE0
FFFFE0
7FFFC0
1FFF00
07FC00
000000
000000
000000
000000
000000
ENDCHAR

STARTCHAR 6
ENCODING 54
SWIDTH 916 0
DWIDTH 22 0
BBX 22 25 0 -5
BITMAP
07FC00
1FFF00
7FFFC0
FFFFE0
FE0FE0
FC07E0
FC0000
FC0000
FFFE00
FFFF80
FFFFC0
FFFFE0
FE0FE0
FC07E0
FC07E0
FE0FE0
FFFFE0
7FFFC0
1FFF00
07FC00
000000
000000
000000
000000
000000
ENDCHAR

STARTCHAR 7
ENCODING 55
SWIDTH 916 0
DWIDTH 22 0
BBX 22 25 0 -5
BITMAP
FFFFE0
FFFFE0
FFFFE0
FFFFE0
000FC0
000FC0
001F80
001F80
003F00
003F00
007E00
007E00
00FC00
00FC00
01F800
01F800
03F000
03F000
07E000
07E000
000000
000000
000000
000000
000000
ENDCHAR

STARTCHAR 8
ENCODING 56
SWIDTH 916 0
DWIDTH 22 0
BBX 22 25 0 -5
BITMAP
07FC00
1FFF00
7FFFC0
FFFFE0
FE0FE0
FC07E0
FC07E0
FE0FE0
7FFFC0
1FFF00
1FFF00
7FFFC0
FE0FE0
FC07E0
FC07E0
FE0FE0
FFFFE0
7FFFC0
1FFF00
07FC00
000000
000000
000000
000000
000000
ENDCHAR

STARTCHAR 9
ENCODING 57
SWIDTH 916 0
DWIDTH 22 0
BBX 22 25 0 -5
BITMAP
07FC00
1FFF00
7FFFC0
FFFFE0
FE0FE0
FC07E0
FC07E0
FE0FE0
FFFFE0
7FFFE0
3FFFE0
0FFFE0
0007E0
0007E0
FC07E0
FE0FE0
FFFFE0
7FFFC0
1FFF00
07FC00
000000
000000
000000
000000
000000
ENDCHAR

STARTCHAR :
ENCODING 58
SWIDTH 916 0
DWIDTH 22 0
BBX 22 25 0 -5
BITMAP
000000
000000
000000
000000
000000
000000
000000
7E0000
FF0000
FF0000
FF0000
7E0000
000000
000000
000000
7E0000
FF0000
FF0000
FF0000
7E0000
000000
000000
000000
000000
000000
ENDCHAR

STARTCHAR ;
ENCODING 59
SWIDTH 916 0
DWIDTH 22 0
BBX 22 25 0 -5
BITMAP
000000
000000
000000
000000
000000
000000
000000
7E0000
FF0000
FF0000
FF0000
7E0000
000000
000000
000000
7E0000
FF0000
FF0000
FF0000
7F0000
1E0000
1C0000
380000
600000
000000
ENDCHAR

STARTCHAR <
ENCODING 60
SWIDTH 916 0
DWIDTH 22 0
BBX 22 25 0 -5
BITMAP
000000
000000
000080
0003C0
000FE0
003FF0
00FFC0
03FF00
0FFC00
3FF000
FFC000
3FF000
0FFC00
03FF00
00FFC0
003FF0
000FE0
0003C0
000080
000000
000000
000000
000000
000000
000000
ENDCHAR

STARTCHAR =
ENCODING 61
SWIDTH 916 0
DWIDTH 22 0
BBX 22 25 0 -5
BITMAP
000000
000000
000000
000000
000000
FFFFC0
FFFFC0
FFFFC0
FFFFC0
000000
000000
000000
FFFFC0
FFFFC0
FFFFC0
FFFFC0
000000
000000
000000
000000
000000
000000
000000
000000
000000
ENDCHAR

STARTCHAR >
ENCODING 62
SWIDTH 916 0
DWIDTH 22 0
BBX 22 25 0 -5
BITMAP
000000
000000
100000
3C0000
7F0000
FFC000
3FF000
0FFC00
03FF00
00FFC0
003FF0
00FFC0
03FF00
0FFC00
3FF000
FFC000
7F0000
3C0000
100000
000000
000000
000000
000000
000000
000000
ENDCHAR

STARTCHAR ?
ENCODING 63
SWIDTH 916 0
DWIDTH 22 0
BBX 22 25 0 -5
BITMAP
07FC00
1FFF00
7FFFC0
FFFFE0
FE0FE0
FC07E0
0007E0
001FE0
007FC0
01FF00
03FC00
03F800
03F000
000000
000000
03F000
07F800
07F800
07F800
03F000
000000
000000
000000
000000
000000
ENDCHAR

STARTCHAR @
ENCODING 64
SWIDTH 916 0
DWIDTH 22 0
BBX 22 25 0 -5
BITMAP
07FC00
1FFF00
7FFFC0
FE0FE0
F803E0
F0E1E0
F1F1E0
F3F9E0
F3B9E0
F71DE0
F71DE0
F3BFE0
F3FFE0
F1FFC0
F0E000
F80000
FE07E0
7FFFE0
1FFF80
07FE00
000000
000000
000000
000000
000000
ENDCHAR

STARTCHAR A
ENCODING 65
SWIDTH 916 0
DWIDTH 22 0
BBX 22 25 0 -5
BITMAP
01F000
03F800
03F800
07FC00
07FC00
07FC00
0FFE00
0FBE00
0FBE00
1FBF00
1F1F00
1F1F00
3F1F80
3FFF80
3FFF80
7FFFC0
7FFFC0
7E0FC0
FC07E0
FC07E0
000000
000000
000000
000000
000000
ENDCHAR

STARTCHAR B
ENCODING 66
SWIDTH 916 0
DWIDTH 22 0
BBX 22 25 0 -5
BITMAP
FFFC00
FFFF00
FFFFC0
FFFFE0
FC0FE0
FC07E0
FC07E0
FC0FE0
FFFFC0
FFFF00
FFFF00
FFFFC0
FC0FE0
FC07E0
FC07E0
FC0FE0
FFFFE0
FFFFC0
FFFF00
FFFC00
000000
000000
000000
000000
000000
ENDCHAR

STARTCHAR C
ENCODING 67
SWIDTH 916 0
DWIDTH 22 0
BBX 22 25 0 -5
BITMAP
07FC00
1FFF00
7FFFC0
FFFFE0
FE0FE0
FC07E0
FC0000
FC0000
FC0000
FC0000
FC0000
FC0000
FC0000
FC0000
FC07E0
FE0FE0
FFFFE0
7FFFC0
1FFF00
07FC00
000000
000000
000000
000000
000000
ENDCHAR

STARTCHAR D
ENCODING 68
SWIDTH 916 0
DWIDTH 22 0
BBX 22 25 0 -5
BITMAP
FFFC00
FFFF00
FFFFC0
FFFFE0
FC0FE0
FC07E0
FC07E0
FC07E0
FC07E0
FC07E0
FC07E0
FC07E0
FC07E0
FC07E0
FC07E0
FC0FE0
FFFFE0
FFFFC0
FFFF00
FFFC00
000000
000000
000000
000000
000000
ENDCHAR

STARTCHAR E
ENCODING 69
SWIDTH 916 0
DWIDTH 22 0
BBX 22 25 0 -5
BITMAP
FFFFE0
FFFFE0
FFFFE0
FFFFE0
FC0000
FC0000
FC0000
FC0000
FFFC00
FFFC00
FFFC00
FFFC00
FC0000
FC0000
FC0000
FC0000
FFFFE0
FFFFE0
FFFFE0
FFFFE0
000000
000000
000000
000000
000000
ENDCHAR

STARTCHAR F
ENCODING 70
SWIDTH 916 0
DWIDTH 22 0
BBX 22 25 0 -5
BITMAP
FFFFE0
FFFFE0
FFFFE0
FFFFE0
FC0000
FC0000
FC0000
FC0000
FFFC00
FFFC00
FFFC00
FFFC00
FC0000
FC0000
FC0000
FC0000
FC0000
FC0000
FC0000
FC0000
000000
000000
000000
000000
000000
ENDCHAR

STARTCHAR G
ENCODING 71
SWIDTH 916 0
DWIDTH 22 0
BBX 22 25 0 -5
BITMAP
07FC00
1FFF00
7FFFC0
FFFFE0
FC07E0
F80000
F80000
F80000
F87FE0
F87FE0
F87FE0
F87FE0
F803E0
F803E0
F803E0
FC07E0
FFFFC0
7FFF80
1FFF00
07FC00
000000
000000
000000
000000
000000
ENDCHAR

STARTCHAR H
ENCODING 72
SWIDTH 916 0
DWIDTH 22 0
BBX 22 25 0 -5
BITMAP
FC07E0
FC07E0
FC07E0
FC07E0
FC07E0
FC07E0
FC07E0
FC07E0
FFFFE0
FFFFE0
FFFFE0
FFFFE0
FC07E0
FC07E0
FC07E0
FC07E0
FC07E0
FC07E0
FC07E0
FC07E0
000000
000000
000000
000000
000000
ENDCHAR

STARTCHAR I
ENCODING 73
SWIDTH 916 0
DWIDTH 22 0
BBX 22 25 0 -5
BITMAP
FFF000
FFF000
FFF000
FFF000
1F8000
1F8000
1F8000
1F8000
1F8000
1F8000
1F8000
1F8000
1F8000
1F8000
1F8000
1F8000
FFF000
FFF000
FFF000
FFF000
000000
000000
000000
000000
000000
ENDCHAR

STARTCHAR J
ENCODING 74
SWIDTH 916 0
DWIDTH 22 0
BBX 22 25 0 -5
BITMAP
001F80
001F80
001F80
001F80
001F80
001F80
001F80
001F80
001F80
001F80
001F80
001F80
001F80
FC1F80
FC1F80
FE3F80
FFFF80
7FFF00
3FFE00
0FF800
000000
000000
000000
000000
000000
ENDCHAR

STARTCHAR K
ENCODING 75
SWIDTH 916 0
DWIDTH 22 0
BBX 22 25 0 -5
BITMAP
FC07F0
FC0FE0
FC1FC0
FC3F80
FC7F00
FCFE00
FDFC00
FFF800
FFF000
FFE000
FFE000
FFF000
FFF800
FDFC00
FCFE00
FC7F00
FC3F80
FC1FC0
FC0FE0
FC07F0
000000
000000
000000
000000
000000
ENDCHAR

STARTCHAR L
ENCODING 76
SWIDTH 916 0
DWIDTH 22 0
BBX 22 25 0 -5
BITMAP
FC0000
FC0000
FC0000
FC0000
FC0000
FC0000
FC0000
FC0000
FC0000
FC0000
FC0000
FC0000
FC0000
FC0000
FC0000
FC0000
FFFFE0
FFFFE0
FFFFE0
FFFFE0
000000
000000
000000
000000
000000
ENDCHAR

STARTCHAR M
ENCODING 77
SWIDTH 916 0
DWIDTH 22 0
BBX 22 25 0 -5
BITMAP
FC07E0
FE0FE0
FF1FE0
FFBFE0
FFFFE0
FFFFE0
FFFFE0
FFFFE0
FFFFE0
FDF7E0
FCE7E0
FC47E0
FC07E0
FC07E0
FC07E0
FC07E0
FC07E0
FC07E0
FC07E0
FC07E0
000000
000000
000000
000000
000000
ENDCHAR

STARTCHAR N
ENCODING 78
SWIDTH 916 0
DWIDTH 22 0
BBX 22 25 0 -5
BITMAP
FC07E0
FE07E0
FE07E0
FF07E0
FF87E0
FFC7E0
FFC7E0
FFE7E0
FFF7E0
FFFFE0
FFFFE0
FDFFE0
FCFFE0
FC7FE0
FC7FE0
FC3FE0
FC1FE0
FC0FE0
FC0FE0
FC07E0
000000
000000
000000
000000
000000
ENDCHAR

STARTCHAR O
ENCODING 79
SWIDTH 916 0
DWIDTH 22 0
BBX 22 25 0 -5
BITMAP
07FC00
1FFF00
7FFFC0
FFFFE0
FE0FE0
FC07E0
FC07E0
FC07E0
FC07E0
FC07E0
FC07E0
FC07E0
FC07E0
FC07E0
FC07E0
FE0FE0
FFFFE0
7FFFC0
1FFF00
07FC00
000000
000000
000000
000000
000000
ENDCHAR

STARTCHAR P
ENCODING 80
SWIDTH 916 0
DWIDTH 22 0
BBX 22 25 0 -5
BITMAP
FFFC00
FFFF00
FFFFC0
FFFFC0
FC0FE0
FC07E0
FC07E0
FC07E0
FC0FE0
FFFFC0
FFFFC0
FFFF00
FFFC00
FC0000
FC0000
FC0000
FC0000
FC0000
FC0000
FC0000
000000
000000
000000
000000
000000
ENDCHAR

STARTCHAR Q
ENCODING 81
SWIDTH 916 0
DWIDTH 22 0
BBX 22 25 0 -5
BITMAP
07FC00
1FFF00
7FFFC0
FFFFE0
FE0FE0
FC07E0
FC07E0
FC07E0
FC07E0
FC07E0
FC07E0
FC07E0
FC07E0
FCFFE0
FC7FE0
FE3FC0
FFFF80
7FFFC0
1FFFE0
07E3F0
000000
000000
000000
000000
000000
ENDCHAR

STARTCHAR R
ENCODING 82
SWIDTH 916 0
DWIDTH 22 0
BBX 22 25 0 -5
BITMAP
FFFC00
FFFF00
FFFFC0
FFFFC0
FC0FE0
FC07E0
FC07E0
FC07E0
FC0FE0
FFFFC0
FFFFC0
FFFF00
FFFE00
FC3F00
FC1F00
FC1F80
FC0F80
FC0FC0
FC07C0
FC07E0
000000
000000
000000
000000
000000
ENDCHAR

STARTCHAR S
ENCODING 83
SWIDTH 916 0
DWIDTH 22 0
BBX 22 25 0 -5
BITMAP
07FC00
1FFF00
7FFFC0
FFFFE0
FE0FE0
FC07E0
FC0000
FE0000
7FE000
1FFC00
07FF00
00FFC0
000FE0
0007E0
FC07E0
FE0FE0
FFFFE0
7FFFC0
1FFF00
07FC00
000000
000000
000000
000000
000000
ENDCHAR

STARTCHAR T
ENCODING 84
SWIDTH 916 0
DWIDTH 22 0
BBX 22 25 0 -5
BITMAP
FFFFC0
FFFFC0
FFFFC0
FFFFC0
03F000
03F000
03F000
03F000
03F000
03F000
03F000
03F000
03F000
03F000
03F000
03F000
03F000
03F000
03F000
03F000
000000
000000
000000
000000
000000
ENDCHAR

STARTCHAR U
ENCODING 85
SWIDTH 916 0
DWIDTH 22 0
BBX 22 25 0 -5
BITMAP
FC07E0
FC07E0
FC07E0
FC07E0
FC07E0
FC07E0
FC07E0
FC07E0
FC07E0
FC07E0
FC07E0
FC07E0
FC07E0
FC07E0
FC07E0
FE0FE0
FFFFE0
7FFFC0
1FFF00
07FC00
000000
000000
000000
000000
000000
ENDCHAR

STARTCHAR V
ENCODING 86
SWIDTH 916 0
DWIDTH 22 0
BBX 22 25 0 -5
BITMAP
FC07E0
FC07E0
7E0FC0
7E0FC0
7E0FC0
3F1F80
3F1F80
3F1F80
1FBF00
1FBF00
1FBF00
0FFE00
0FFE00
0FFE00
07FC00
07FC00
07FC00
03F800
03F800
03F800
000000
000000
000000
000000
000000
ENDCHAR

STARTCHAR W
ENCODING 87
SWIDTH 916 0
DWIDTH 22 0
BBX 22 25 0 -5
BITMAP
FC07E0
FC07E0
FC07E0
FC07E0
7E0FC0
7E4FC0
7EEFC0
7EEFC0
3FFF80
3FFF80
3FFF80
3FFF80
1FFF00
1FFF00
1FBF00
1FBF00
0F1E00
0F1E00
0F1E00
0F1E00
000000
000000
000000
000000
000000
ENDCHAR

STARTCHAR X
ENCODING 88
SWIDTH 916 0
DWIDTH 22 0
BBX 22 25 0 -5
BITMAP
FC07E0
7E0FC0
7E0FC0
3F1F80
1FBF00
1FBF00
0FFE00
07FC00
07FC00
03F800
03F800
07FC00
07FC00
0FFE00
1FBF00
1FBF00
3F1F80
7E0FC0
7E0FC0
FC07E0
000000
000000
000000
000000
000000
ENDCHAR

STARTCHAR Y
ENCODING 89
SWIDTH 916 0
DWIDTH 22 0
BBX 22 25 0 -5
BITMAP
FC03F0
7E07E0
7E07E0
3F0FC0
1F9F80
1F9F80
0FFF00
07FE00
07FE00
03FC00
01F800
01F800
01F800
01F800
01F800
01F800
01F800
01F800
01F800
01F800
000000
000000
000000
000000
000000
ENDCHAR

STARTCHAR Z
ENCODING 90
SWIDTH 916 0
DWIDTH 22 0
BBX 22 25 0 -5
BITMAP
FFFFE0
FFFFE0
FFFFE0
FFFFE0
000FC0
001F80
003F00
007E00
7FFFC0
7FFFC0
7FFFC0
7FFFC0
0FC000
1F8000
3F0000
7E0000
FFFFE0
FFFFE0
FFFFE0
FFFFE0
000000
000000
000000
000000
000000
ENDCHAR

STARTCHAR [
ENCODING 91
SWIDTH 916 0
DWIDTH 22 0
BBX 22 25 0 -5
BITMAP
FFF000
FFF000
FFF000
FFF000
FC0000
FC0000
FC0000
FC0000
FC0000
FC0000
FC0000
FC0000
FC0000
FC0000
FC0000
FC0000
FFF000
FFF000
FFF000
FFF000
000000
000000
000000
000000
000000
ENDCHAR

STARTCHAR \
ENCODING 92
SWIDTH 916 0
DWIDTH 22 0
BBX 22 25 0 -5
BITMAP
FC0000
7E0000
7E0000
3F0000
1F8000
1F8000
0FC000
07E000
07E000
03F000
01F800
00FC00
00FC00
007E00
003F00
003F00
001F80
000FC0
000FC0
0007E0
000000
000000
000000
000000
000000
ENDCHAR

STARTCHAR ]
ENCODING 93
SWIDTH 916 0
DWIDTH 22 0
BBX 22 25 0 -5
BITMAP
FFF000
FFF000
FFF000
FFF000
03F000
03F000
03F000
03F000
03F000
03F000
03F000
03F000
03F000
03F000
03F000
03F000
FFF000
FFF000
FFF000
FFF000
000000
000000
000000
000000
000000
ENDCHAR

STARTCHAR ^
ENCODING 94
SWIDTH 916 0
DWIDTH 22 0
BBX 22 25 0 -5
BITMAP
01F000
03F800
07FC00
0FFE00
1FBF00
3F1F80
7E0FC0
FC07E0
000000
000000
000000
000000
000000
000000
000000
000000
000000
000000
000000
000000
000000
000000
000000
000000
000000
ENDCHAR

STARTCHAR _
ENCODING 95
SWIDTH 916 0
DWIDTH 22 0
BBX 22 25 0 -5
BITMAP
000000
000000
000000
000000
000000
000000
000000
000000
000000
000000
000000
000000
000000
000000
000000
000000
000000
000000
000000
000000
000000
FFFFFC
FFFFFC
FFFFFC
FFFFFC
ENDCHAR

STARTCHAR `
ENCODING 96
SWIDTH 916 0
DWIDTH 22 0
BBX 22 25 0 -5
BITMAP
FC0000
FC0000
7E0000
7E0000
3F0000
3F0000
1F8000
1F8000
000000
000000
000000
000000
000000
000000
000000
000000
000000
000000
000000
000000
000000
000000
000000
000000
000000
ENDCHAR

STARTCHAR a
ENCODING 97
SWIDTH 916 0
DWIDTH 22 0
BBX 22 25 0 -5
BITMAP
000000
000000
000000
000000
000000
000000
000000
1FF800
7FFC00
FFFE00
001E00
001E00
1FFE00
7FFE00
FFFE00
F83E00
F83E00
FFFE00
7FFE00
1FDE00
000000
000000
000000
000000
000000
ENDCHAR

STARTCHAR b
ENCODING 98
SWIDTH 916 0
DWIDTH 22 0
BBX 22 25 0 -5
BITMAP
F00000
F00000
F00000
F00000
F00000
F00000
F00000
FFF000
FFFC00
FFFE00
F03E00
F01E00
F01E00
F01E00
F01E00
F01E00
F03E00
FFFE00
FFFC00
FFF000
000000
000000
000000
000000
000000
ENDCHAR

STARTCHAR c
ENCODING 99
SWIDTH 916 0
DWIDTH 22 0
BBX 22 25 0 -5
BITMAP
000000
000000
000000
000000
000000
000000
000000
1FF000
7FFC00
FFFE00
F81E00
F00000
F00000
F00000
F00000
F00000
F81E00
FFFE00
7FFC00
1FF000
000000
000000
000000
000000
000000
ENDCHAR

STARTCHAR d
ENCODING 100
SWIDTH 916 0
DWIDTH 22 0
BBX 22 25 0 -5
BITMAP
001E00
001E00
001E00
001E00
001E00
001E00
001E00
1FFE00
7FFE00
FFFE00
F81E00
F01E00
F01E00
F01E00
F01E00
F01E00
F81E00
FFFE00
7FFE00
1FFE00
000000
000000
000000
000000
000000
ENDCHAR

STARTCHAR e
ENCODING 101
SWIDTH 916 0
DWIDTH 22 0
BBX 22 25 0 -5
BITMAP
000000
000000
000000
000000
000000
000000
000000
1FF000
7FFC00
FFFE00
F01E00
F01E00
FFFE00
FFFE00
FFFE00
F00000
F00000
FFFE00
7FFC00
1FF000
000000
000000
000000
000000
000000
ENDCHAR

STARTCHAR f
ENCODING 102
SWIDTH 916 0
DWIDTH 22 0
BBX 22 25 0 -5
BITMAP
07F000
0FFC00
1FFE00
1E1E00
1E1E00
1E0000
1E0000
1E0000
1E0000
FFE000
FFE000
FFE000
1E0000
1E0000
1E0000
1E0000
1E0000
1E0000
1E0000
1E0000
000000
000000
000000
000000
000000
ENDCHAR

STARTCHAR g
ENCODING 103
SWIDTH 916 0
DWIDTH 22 0
BBX 22 25 0 -5
BITMAP
000000
000000
000000
000000
000000
000000
000000
1FFE00
7FFE00
FFFE00
F83E00
F01E00
F01E00
F01E00
F01E00
F01E00
F83E00
FFFE00
7FFE00
1FFE00
001E00
001E00
FFFE00
7FFC00
1FF000
ENDCHAR

STARTCHAR h
ENCODING 104
SWIDTH 916 0
DWIDTH 22 0
BBX 22 25 0 -5
BITMAP
F00000
F00000
F00000
F00000
F00000
F00000
F00000
FFF000
FFFC00
FFFE00
F03E00
F01E00
F01E00
F01E00
F01E00
F01E00
F01E00
F01E00
F01E00
F01E00
000000
000000
000000
000000
000000
ENDCHAR

STARTCHAR i
ENCODING 105
SWIDTH 916 0
DWIDTH 22 0
BBX 22 25 0 -5
BITMAP
000000
000000
0C0000
1E0000
1E0000
0C0000
000000
FE0000
FE0000
FE0000
1E0000
1E0000
1E0000
1E0000
1E0000
1E0000
1E0000
FFC000
FFC000
FFC000
000000
000000
000000
000000
000000
ENDCHAR

STARTCHAR j
ENCODING 106
SWIDTH 916 0
DWIDTH 22 0
BBX 22 25 0 -5
BITMAP
000000
000000
006000
00F000
00F000
006000
000000
07F000
07F000
07F000
00F000
00F000
00F000
00F000
00F000
00F000
00F000
00F000
00F000
00F000
F0F000
F0F000
FFF000
7FE000
1F8000
ENDCHAR

STARTCHAR k
ENCODING 107
SWIDTH 916 0
DWIDTH 22 0
BBX 22 25 0 -5
BITMAP
F00000
F00000
F00000
F00000
F00000
F00000
F00000
F07E00
F0FC00
F1F800
F7E000
FFC000
FF8000
FF0000
FF8000
FFC000
F7E000
F1F800
F0FC00
F07E00
000000
000000
000000
000000
000000
ENDCHAR

STARTCHAR l
ENCODING 108
SWIDTH 916 0
DWIDTH 22 0
BBX 22 25 0 -5
BITMAP
FE0000
FE0000
FE0000
1E0000
1E0000
1E0000
1E0000
1E0000
1E0000
1E0000
1E0000
1E0000
1E0000
1E0000
1E0000
1E0000
1E0000
FFC000
FFC000
FFC000
000000
000000
000000
000000
000000
ENDCHAR

STARTCHAR m
ENCODING 109
SWIDTH 916 0
DWIDTH 22 0
BBX 22 25 0 -5
BITMAP
000000
000000
000000
000000
000000
000000
000000
F71E00
FFFF80
FFFFC0
FBF7C0
F1E3C0
F1E3C0
F1E3C0
F1E3C0
F1E3C0
F1E3C0
F1E3C0
F1E3C0
F1E3C0
000000
000000
000000
000000
000000
ENDCHAR

STARTCHAR n
ENCODING 110
SWIDTH 916 0
DWIDTH 22 0
BBX 22 25 0 -5
BITMAP
000000
000000
000000
000000
000000
000000
000000
F7F000
FFFC00
FFFE00
F83E00
F01E00
F01E00
F01E00
F01E00
F01E00
F01E00
F01E00
F01E00
F01E00
000000
000000
000000
000000
000000
ENDCHAR

STARTCHAR o
ENCODING 111
SWIDTH 916 0
DWIDTH 22 0
BBX 22 25 0 -5
BITMAP
000000
000000
000000
000000
000000
000000
000000
1FF000
7FFC00
FFFE00
F83E00
F01E00
F01E00
F01E00
F01E00
F01E00
F83E00
FFFE00
7FFC00
1FF000
000000
000000
000000
000000
000000
ENDCHAR

STARTCHAR p
ENCODING 112
SWIDTH 916 0
DWIDTH 22 0
BBX 22 25 0 -5
BITMAP
000000
000000
000000
000000
000000
000000
000000
FFF000
FFFC00
FFFE00
F03E00
F01E00
F01E00
F01E00
F01E00
F01E00
F03E00
FFFE00
FFFC00
FFF000
F00000
F00000
F00000
F00000
F00000
ENDCHAR

STARTCHAR q
ENCODING 113
SWIDTH 916 0
DWIDTH 22 0
BBX 22 25 0 -5
BITMAP
000000
000000
000000
000000
000000
000000
000000
1FFE00
7FFE00
FFFE00
F81E00
F01E00
F01E00
F01E00
F01E00
F01E00
F81E00
FFFE00
7FFE00
1FFE00
001E00
001E00
001E00
001E00
001E00
ENDCHAR

STARTCHAR r
ENCODING 114
SWIDTH 916 0
DWIDTH 22 0
BBX 22 25 0 -5
BITMAP
000000
000000
000000
000000
000000
000000
000000
F7F000
FFFC00
FFFE00
F83E00
F01E00
F00000
F00000
F00000
F00000
F00000
F00000
F00000
F00000
000000
000000
000000
000000
000000
ENDCHAR

STARTCHAR s
ENCODING 115
SWIDTH 916 0
DWIDTH 22 0
BBX 22 25 0 -5
BITMAP
000000
000000
000000
000000
000000
000000
000000
1FF000
7FFC00
FFFE00
F00000
F00000
FFF000
7FFC00
1FFE00
001E00
001E00
FFFE00
7FFC00
1FF000
000000
000000
000000
000000
000000
ENDCHAR

STARTCHAR t
ENCODING 116
SWIDTH 916 0
DWIDTH 22 0
BBX 22 25 0 -5
BITMAP
000000
000000
000000
078000
078000
078000
078000
FFFE00
FFFE00
FFFE00
078000
078000
078000
078000
078000
078000
078F00
07FF00
03FE00
00F800
000000
000000
000000
000000
000000
ENDCHAR

STARTCHAR u
ENCODING 117
SWIDTH 916 0
DWIDTH 22 0
BBX 22 25 0 -5
BITMAP
000000
000000
000000
000000
000000
000000
000000
F01E00
F01E00
F01E00
F01E00
F01E00
F01E00
F01E00
F01E00
F01E00
F83E00
FFFE00
7FFE00
1FDE00
000000
000000
000000
000000
000000
ENDCHAR

STARTCHAR v
ENCODING 118
SWIDTH 916 0
DWIDTH 22 0
BBX 22 25 0 -5
BITMAP
000000
000000
000000
000000
000000
000000
000000
F01E00
F01E00
783C00
783C00
783C00
3C7800
3C7800
1EF000
1EF000
0FE000
0FE000
07C000
07C000
000000
000000
000000
000000
000000
ENDCHAR

STARTCHAR w
ENCODING 119
SWIDTH 916 0
DWIDTH 22 0
BBX 22 25 0 -5
BITMAP
000000
000000
000000
000000
000000
000000
000000
F0E1E0
F0E1E0
79F3C0
79F3C0
79F3C0
7BFBC0
3FBF80
3FBF80
3F1F80
1F1F00
1E0F00
1E0F00
1E0F00
000000
000000
000000
000000
000000
ENDCHAR

STARTCHAR x
ENCODING 120
SWIDTH 916 0
DWIDTH 22 0
BBX 22 25 0 -5
BITMAP
000000
000000
000000
000000
000000
000000
000000
F80F80
7C1F00
3E3E00
1F7C00
0FF800
07F000
03E000
07F000
0FF800
1F7C00
3E3E00
7C1F00
F80F80
000000
000000
000000
000000
000000
ENDCHAR

STARTCHAR y
ENCODING 121
SWIDTH 916 0
DWIDTH 22 0
BBX 22 25 0 -5
BITMAP
000000
000000
000000
000000
000000
000000
000000
F81F00
F81F00
7C3E00
7C3E00
3E7C00
3E7C00
1FF800
1FF800
0FF000
07F000
07E000
03E000
07C000
07C000
0F8000
0F8000
1F0000
1F0000
ENDCHAR

STARTCHAR z
ENCODING 122
SWIDTH 916 0
DWIDTH 22 0
BBX 22 25 0 -5
BITMAP
000000
000000
000000
000000
000000
000000
000000
FFFE00
FFFE00
FFFE00
007C00
00F800
7FFC00
7FFC00
7FFC00
3E0000
7C0000
FFFE00
FFFE00
FFFE00
000000
000000
000000
000000
000000
ENDCHAR

STARTCHAR {
ENCODING 123
SWIDTH 916 0
DWIDTH 22 0
BBX 22 25 0 -5
BITMAP
00F800
03F800
07F800
0FC000
0F8000
0F8000
0F8000
0F8000
3F0000
FC0000
FC0000
3F0000
0F8000
0F8000
0F8000
0F8000
0FC000
07F800
03F800
00F800
000000
000000
000000
000000
000000
ENDCHAR

STARTCHAR |
ENCODING 124
SWIDTH 916 0
DWIDTH 22 0
BBX 22 25 0 -5
BITMAP
F80000
F80000
F80000
F80000
F80000
F80000
F80000
F80000
F80000
F80000
F80000
F80000
F80000
F80000
F80000
F80000
F80000
F80000
F80000
F80000
F80000
F80000
F80000
F80000
F80000
ENDCHAR

STARTCHAR }
ENCODING 125
SWIDTH 916 0
DWIDTH 22 0
BBX 22 25 0 -5
BITMAP
F00000
FE0000
FF0000
1F8000
0F8000
0F8000
0F8000
0F8000
07E000
01F800
01F800
07E000
0F8000
0F8000
0F8000
0F8000
1F8000
FF0000
FE0000
F80000
000000
000000
000000
000000
000000
ENDCHAR

STARTCHAR ~
ENCODING 126
SWIDTH 916 0
DWIDTH 22 0
BBX 22 25 0 -5
BITMAP
000000
000000
000000
000000
000000
000000
1F0020
7FC0E0
FFF3E0
FFFFE0
FFFFE0
F9FFE0
E07FC0
801F00
000000
000000
000000
000000
000000
000000
000000
000000
000000
000000
000000
ENDCHAR

STARTCHAR C177
ENCODING 127
SWIDTH 916 0
DWIDTH 22 0
BBX 22 25 0 -5
BITMAP
FFFFE0
FFFFE0
FFFFE0
FFFFE0
FFFFE0
FFFFE0
FFFFE0
FFFFE0
FFFFE0
FFFFE0
FFFFE0
FFFFE0
FFFFE0
FFFFE0
FFFFE0
FFFFE0
FFFFE0
FFFFE0
FFFFE0
FFFFE0
000000
000000
000000
000000
000000
ENDCHAR
ENDFONT
